<svg width="36" height="33" viewBox="0 0 36 33" fill="none" xmlns="http://www.w3.org/2000/svg">
<path d="M35.1666 10.875C35.1666 7.009 32.0326 3.875 28.1666 3.875C26.9996 3.875 25.9016 4.165 24.9346 4.669C22.8526 1.842 19.5096 0 15.7296 0C10.5976 0 6.25463 3.38 4.80663 8.036C2.14863 8.653 0.166626 11.03 0.166626 13.875C0.166626 16.854 2.34063 19.32 5.18763 19.788C5.40363 23.737 8.66463 26.875 12.6666 26.875C14.8426 26.875 16.7966 25.942 18.1666 24.462C19.5366 25.942 21.4896 26.875 23.6666 26.875C27.8096 26.875 31.1666 23.518 31.1666 19.375C31.1666 18.665 31.0616 17.981 30.8776 17.33C33.3966 16.271 35.1666 13.78 35.1666 10.875Z" fill="#85C8F8"/>
<path d="M4.16663 32.875C5.82348 32.875 7.16663 31.5319 7.16663 29.875C7.16663 28.2181 5.82348 26.875 4.16663 26.875C2.50977 26.875 1.16663 28.2181 1.16663 29.875C1.16663 31.5319 2.50977 32.875 4.16663 32.875Z" fill="#85C8F8"/>
</svg>
