<svg width="36" height="36" viewBox="0 0 36 36" fill="none" xmlns="http://www.w3.org/2000/svg">
<path d="M7.75007 4C8.75007 3 8.00007 0 6.31207 0C4.62407 0 4.75007 2 5.75007 2C6.75007 2 6.75007 4 6.75007 5C6.75007 6 7.75007 4 7.75007 4ZM3.56707 5.72C4.56707 4.72 3.81707 1.72 2.12907 1.72C0.441068 1.72 0.567068 3.72 1.56707 3.72C2.56707 3.72 2.56707 5.72 2.56707 6.72C2.56707 7.72 3.56707 5.72 3.56707 5.72Z" fill="#AA8DD8"/>
<path d="M29.942 32.856C30.131 33.664 31.169 35.136 31.974 34.947C32.78 34.757 33.051 32.976 32.862 32.17C32.673 31.362 31.864 30.863 31.058 31.053C30.253 31.243 29.752 32.05 29.942 32.856ZM24.508 33.505C24.511 34.335 25.189 36.003 26.017 36C26.845 35.996 27.511 34.323 27.508 33.494C27.505 32.665 26.831 31.997 26.003 31.999C25.175 32.003 24.505 32.676 24.508 33.505ZM19.237 31.059C18.911 31.823 18.872 33.622 19.633 33.949C20.396 34.273 21.67 33.002 21.996 32.239C22.321 31.477 21.968 30.596 21.207 30.269C20.445 29.944 19.564 30.296 19.237 31.059ZM14.206 20.019C13.394 20.191 11.898 21.192 12.067 22.002C12.24 22.812 14.012 23.126 14.824 22.955C15.635 22.784 16.153 21.988 15.984 21.178C15.812 20.368 15.019 19.848 14.206 20.019ZM12.169 15.019C11.357 15.191 9.86104 16.192 10.03 17.002C10.203 17.812 11.975 18.126 12.787 17.955C13.598 17.784 14.116 16.988 13.947 16.178C13.775 15.368 12.981 14.848 12.169 15.019Z" fill="#744EAA"/>
<path d="M27.5791 34C30.41 34 32.505 33.123 32.845 32.973C35.1161 31.963 36.1381 29.304 35.1291 27.034C34.1301 24.784 31.5131 23.759 29.2571 24.72C29.1241 24.77 27.4641 25.369 25.9141 24.648C24.0631 23.787 22.9191 21.339 22.2861 19.439C22.1421 19.009 21.9011 18.165 21.6 17.123C19.7341 10.652 18.7681 8.83799 17.6171 7.30299C13.906 2.35199 8.02505 2.00699 5.13405 2.58699C2.69705 3.07399 1.11605 5.44499 1.60405 7.88199C2.09205 10.32 4.46405 11.902 6.90005 11.412C7.06205 11.386 9.10405 11.106 10.3241 12.581C10.9671 13.868 12.4041 17.709 12.9541 19.615C13.3001 20.814 13.5831 21.786 13.7481 22.282C15.5211 27.599 18.4141 31.175 22.3511 32.911C24.2031 33.729 26.0051 34 27.5791 34Z" fill="#9266CC"/>
<path d="M7.01709 6C7.56937 6 8.01709 5.55228 8.01709 5C8.01709 4.44772 7.56937 4 7.01709 4C6.46481 4 6.01709 4.44772 6.01709 5C6.01709 5.55228 6.46481 6 7.01709 6Z" fill="#202024"/>
<path d="M31.2581 32.964C31.1691 32.964 31.0781 32.952 30.9891 32.928C30.4571 32.78 30.1451 32.229 30.2931 31.697C31.0501 28.975 29.5231 27.155 29.5081 27.137C29.1491 26.718 29.1961 26.086 29.6151 25.727C30.0331 25.368 30.6661 25.415 31.0251 25.834C31.1171 25.941 33.2591 28.494 32.2201 32.231C32.0981 32.674 31.6951 32.964 31.2581 32.964ZM24.0591 32.401C23.8141 32.401 23.5691 32.312 23.3751 32.131C22.9721 31.753 22.9511 31.12 23.3281 30.717C24.8131 29.13 24.7811 26.524 24.7801 26.497C24.7641 25.945 25.1991 25.485 25.7521 25.469C26.2941 25.464 26.7651 25.888 26.7801 26.441C26.7841 26.58 26.8531 29.878 24.7891 32.085C24.5921 32.295 24.3251 32.401 24.0591 32.401ZM15.5171 23.705C15.0371 23.705 14.6131 23.358 14.5321 22.868C14.4421 22.324 14.8101 21.808 15.3551 21.719C18.4291 21.209 20.1291 19.342 20.1461 19.323C20.5111 18.913 21.1441 18.874 21.5551 19.239C21.9671 19.604 22.0081 20.232 21.6461 20.645C21.5591 20.744 19.4901 23.06 15.6821 23.691C15.6261 23.701 15.5711 23.705 15.5171 23.705ZM18.4381 28.562C18.0131 28.562 17.6191 28.29 17.4841 27.864C17.3181 27.338 17.6101 26.775 18.1361 26.609C20.8291 25.756 22.0161 23.779 22.0281 23.759C22.3081 23.282 22.9201 23.122 23.3961 23.402C23.8731 23.681 24.0321 24.295 23.7531 24.77C23.6901 24.878 22.1581 27.433 18.7401 28.514C18.6391 28.547 18.5371 28.562 18.4381 28.562ZM13.8191 17.892C13.3231 17.892 12.8921 17.523 12.8281 17.017C12.7591 16.469 13.1471 15.969 13.6951 15.899C16.3841 15.559 18.3521 13.928 18.3711 13.911C18.7931 13.557 19.4241 13.608 19.7791 14.03C20.1351 14.451 20.0841 15.08 19.6641 15.437C19.5671 15.52 17.2441 17.466 13.9461 17.883C13.9031 17.889 13.8611 17.892 13.8191 17.892ZM11.9981 13.125C11.5731 13.125 11.1791 12.852 11.0441 12.424C10.8791 11.897 11.1711 11.336 11.6981 11.17C14.8281 10.187 15.9511 8.478 15.9971 8.406C16.2921 7.944 16.9081 7.801 17.3721 8.094C17.8371 8.386 17.9831 8.993 17.6961 9.46C17.6361 9.557 16.1901 11.856 12.2971 13.079C12.1981 13.11 12.0971 13.125 11.9981 13.125Z" fill="#744EAA"/>
</svg>
