<svg width="23" height="35" viewBox="0 0 23 35" fill="none" xmlns="http://www.w3.org/2000/svg">
<path d="M22.5 10.92C22.5 17.359 17.5 18.359 17.5 24.36C17.5 27.458 14.377 27.719 12 27.719C9.947 27.719 5.414 26.94 5.414 24.358C5.414 18.36 0.5 17.36 0.5 10.92C0.5 4.889 5.785 0 11.583 0C17.383 0 22.5 4.889 22.5 10.92Z" fill="#FFD983"/>
<path d="M15.667 32.36C15.667 33.188 13.433 34.86 11.5 34.86C9.56701 34.86 7.33301 33.188 7.33301 32.36C7.33301 31.532 9.56601 31.86 11.5 31.86C13.433 31.86 15.667 31.532 15.667 32.36Z" fill="#CCD6DD"/>
<path d="M16.207 10.153C15.816 9.76199 15.184 9.76199 14.793 10.153L11.5 13.446L8.20701 10.153C7.81601 9.76199 7.18401 9.76199 6.79301 10.153C6.40201 10.544 6.40201 11.176 6.79301 11.567L10.5 15.274V25.86C10.5 26.413 10.948 26.86 11.5 26.86C12.052 26.86 12.5 26.413 12.5 25.86V15.274L16.207 11.567C16.598 11.176 16.598 10.544 16.207 10.153Z" fill="#FFCC4D"/>
<path d="M17.5 30.86C17.5 31.964 16.604 32.86 15.5 32.86H7.5C6.396 32.86 5.5 31.964 5.5 30.86V24.86H17.5V30.86Z" fill="#99AAB5"/>
<path d="M5.499 31.86C5.019 31.86 4.595 31.513 4.514 31.024C4.423 30.48 4.791 29.964 5.336 29.874L17.336 27.874C17.88 27.776 18.396 28.151 18.486 28.696C18.577 29.24 18.209 29.756 17.664 29.846L5.664 31.846C5.609 31.856 5.553 31.86 5.499 31.86ZM5.499 27.86C5.019 27.86 4.595 27.513 4.514 27.024C4.423 26.48 4.791 25.964 5.336 25.874L17.336 23.874C17.88 23.777 18.396 24.151 18.486 24.696C18.577 25.24 18.209 25.756 17.664 25.846L5.664 27.846C5.609 27.856 5.553 27.86 5.499 27.86Z" fill="#CCD6DD"/>
</svg>
